<svg xmlns="http://www.w3.org/2000/svg" viewBox="0 0 32 32" role="img" aria-label="GitHub">
  <path fill="#1f2328" d="M16 0C7.16 0 0 7.16 0 16c0 7.07 4.58 13.06 10.94 15.18.8.15 1.09-.35 1.09-.77 0-.38-.01-1.38-.02-2.72-4.45.97-5.39-2.15-5.39-2.15-.73-1.85-1.78-2.34-1.78-2.34-1.45-.99 0-.97 0-.97 1.61.11 2.46 1.65 2.46 1.65 1.43 2.45 3.75 1.74 4.66 1.33.14-1.04.56-1.74 1.02-2.14-3.55-.4-7.29-1.78-7.29-7.86 0-1.74.62-3.16 1.64-4.27-.16-.4-.71-2 .16-4.17 0 0 1.34-.43 4.4 1.63 1.28-.35 2.64-.53 4-.54 1.36.01 2.72.19 4 .54 3.06-2.07 4.39-1.63 4.39-1.63.87 2.17.32 3.77.16 4.17 1.02 1.11 1.63 2.53 1.63 4.27 0 6.09-3.75 7.45-7.31 7.84.57.49 1.08 1.47 1.08 2.96 0 2.14-.02 3.86-.02 4.39 0 .42.29.92 1.1.76A16.003 16.003 0 0 0 32 16C32 7.16 24.84 0 16 0Z"/>
</svg>
